<?xml version="1.0" standalone="no"?>
<!DOCTYPE svg PUBLIC "-//W3C//DTD SVG 20010904//EN"
 "http://www.w3.org/TR/2001/REC-SVG-20010904/DTD/svg10.dtd">
<svg version="1.0" xmlns="http://www.w3.org/2000/svg"
 width="285.000000pt" height="285.000000pt" viewBox="0 0 285.000000 285.000000"
 preserveAspectRatio="xMidYMid meet">
<metadata>
Created by potrace 1.11, written by Peter Selinger 2001-2013
</metadata>
<g transform="translate(0.000000,285.000000) scale(0.100000,-0.100000)"
fill="#000000" stroke="none">
<path d="M358 2820 c-20 -11 -47 -34 -60 -52 -23 -33 -23 -37 -26 -323 -1
-159 -3 -417 -5 -573 l-2 -282 518 0 517 0 -2 573 -3 572 -23 33 c-13 18 -41
41 -62 52 -37 19 -60 20 -427 20 -364 -1 -390 -2 -425 -20z"/>
<path d="M264 1256 c29 -281 208 -565 422 -670 l54 -27 0 -118 0 -119 -47 -23
c-65 -33 -88 -68 -88 -134 0 -61 21 -98 76 -130 33 -19 52 -20 684 -20 613 0
652 1 680 18 45 28 68 65 73 117 9 97 -50 158 -162 167 l-62 5 -60 112 -61
111 51 8 c292 43 480 127 619 276 108 117 160 239 191 449 l6 42 -1191 0
-1192 0 7 -64z"/>
</g>
</svg>
